<svg xmlns="http://www.w3.org/2000/svg" viewBox="0 0 70 70"><rect width="70" height="70" style="fill:red;opacity:0"/><path d="M33.24,12.19l-12.6,7.55c-2.36,1.41-4.29,2.53-4.29,2.48s-2.25-.08-5-.08H9.2a5,5,0,0,0-5,5V42.86a5,5,0,0,0,5,5h2.15c2.75,0,5,0,5-.08s1.93,1.07,4.29,2.48l12.6,7.55c2.36,1.41,4.29.32,4.29-2.43V14.62C37.53,11.87,35.6,10.78,33.24,12.19Z" style="fill:#ffffff"/><path d="M65.31,42.4l-.19-.18a1.84,1.84,0,0,0-.25-.23l-7-7,6.85-6.85.13-.11.44-.45a1.56,1.56,0,0,0,0-2.2L63.8,23.9a1.57,1.57,0,0,0-2.2,0l-.11.12h0l-7.3,7.3L46.89,24h0l-.12-.12a1.56,1.56,0,0,0-2.21,0l-1.46,1.47a1.55,1.55,0,0,0,0,2.2l.18.18.14.12L50.51,35l-7.29,7.29v0l-.14.14a1.55,1.55,0,0,0,0,2.2l1.46,1.47a1.55,1.55,0,0,0,2.2,0l.19-.18a2,2,0,0,0,.18-.21l7.06-7.06,7.3,7.29h0l.14.14a1.57,1.57,0,0,0,2.2,0l1.47-1.47A1.57,1.57,0,0,0,65.31,42.4Z" style="fill:#ffffff"/></svg>
