<svg xmlns="http://www.w3.org/2000/svg" viewBox="0 0 70 70"><rect width="70" height="70" style="fill:red;opacity:0"/><path d="M37.52,14.62c0-2.75-1.93-3.84-4.29-2.43L20.64,19.74c-2.36,1.41-4.29,2.53-4.29,2.48s-2.25-.08-5-.08H9.2a5,5,0,0,0-5,5V42.86a5,5,0,0,0,5,5h2.15c2.75,0,5,0,5-.08s1.93,1.07,4.29,2.48l12.59,7.55c2.36,1.41,4.29.32,4.29-2.43Z" style="fill:#ffffff"/><path d="M61.87,35A47.92,47.92,0,0,0,58,16.28a1.86,1.86,0,0,1,1.42-2.55h0a1.87,1.87,0,0,1,2,1.07A49.62,49.62,0,0,1,65.8,35a49.47,49.47,0,0,1-4.41,20.2,1.85,1.85,0,0,1-2,1.07h0A1.85,1.85,0,0,1,58,53.73,48,48,0,0,0,61.87,35Z" style="fill:#ffffff"/><path d="M53.49,35a31.28,31.28,0,0,0-3.56-14.24,1.75,1.75,0,0,1,1.34-2.55h0a1.76,1.76,0,0,1,1.75.88A32.64,32.64,0,0,1,57.37,35,32.67,32.67,0,0,1,53,50.92a1.79,1.79,0,0,1-1.76.88h0a1.77,1.77,0,0,1-1.34-2.56A31.25,31.25,0,0,0,53.49,35Z" style="fill:#ffffff"/><path d="M45.85,35a22.32,22.32,0,0,0-3-10.88,1.47,1.47,0,0,1,1.11-2.2h0a1.48,1.48,0,0,1,1.42.69A23.62,23.62,0,0,1,49.18,35a23.67,23.67,0,0,1-3.83,12.39,1.48,1.48,0,0,1-1.42.69h0a1.47,1.47,0,0,1-1.11-2.2A22.32,22.32,0,0,0,45.85,35Z" style="fill:#ffffff"/></svg>
